<svg xmlns="http://www.w3.org/2000/svg" viewBox="0 0 1200 900"><defs><linearGradient id="g" x1="0" y1="0" x2="1" y2="1"><stop stop-color="#3d2a1c"/><stop offset="1" stop-color="#150e09"/></linearGradient></defs><rect width="1200" height="900" fill="url(#g)"/><rect x="120" y="540" width="960" height="42" rx="21" fill="#d6a46a" opacity=".3"/><rect x="180" y="580" width="26" height="190" rx="13" fill="#8f5e30"/><rect x="990" y="580" width="26" height="190" rx="13" fill="#8f5e30"/><circle cx="240" cy="330" r="100" fill="#c98f50" opacity=".11"/><circle cx="910" cy="250" r="140" fill="#c98f50" opacity=".10"/><path d="M255 420 h220 a26 26 0 0 1 26 26 v76 a26 26 0 0 1-26 26 H255 a26 26 0 0 1-26-26 v-76 a26 26 0 0 1 26-26Z" fill="#f2e5d5"/><path d="M475 438 h18 a50 50 0 0 1 0 100 h-18" fill="none" stroke="#f2e5d5" stroke-width="20"/><text x="750" y="465" font-family="Georgia,serif" font-size="74" font-weight="700" fill="#f1c58b">MENTERI</text><text x="750" y="515" font-family="Arial,sans-serif" font-size="20" letter-spacing="8" fill="#c7b5a4">FAMILY SPACE</text></svg>
